<svg width="686" height="683" viewBox="0 0 686 683" fill="none" xmlns="http://www.w3.org/2000/svg">
<path opacity="0.3" d="M328.079 648.993C317.832 656.213 306.147 659.652 294.489 659.648C270.442 659.47 248.552 644.073 235.794 618.132L89.1213 319.44C76.6859 293.957 76.11 263.542 87.3124 238.526C98.9247 213.221 119.916 197.745 143.964 197.923L432.242 196.159C456.699 196.048 479.322 211.614 492.079 237.555C504.837 263.495 505.326 294.657 493.304 320.251L351.699 620.707C346.229 632.095 337.916 642.062 328.079 648.993ZM127.647 240.926C122.319 244.68 117.548 250.097 114.477 257.055C108.334 270.972 108.696 287.154 115.764 300.667L262.436 599.359C269.094 613.161 280.933 621.257 294.055 621.599C300.412 621.915 306.707 619.533 312.036 615.778C317.364 612.024 321.726 606.896 324.387 600.227L465.992 299.771C472.456 286.312 472.182 269.382 465.524 255.581C458.867 241.78 446.705 233.226 433.496 233.63L145.628 235.105C138.862 235.078 132.976 237.171 127.647 240.926Z" fill="url(#paint0_linear_2_78)"/>
<path opacity="0.6" d="M354.735 630.211C344.488 637.431 332.803 640.87 321.145 640.866C297.097 640.687 275.208 625.291 262.45 599.35L115.777 300.658C103.342 275.175 102.766 244.76 113.968 219.743C125.58 194.438 146.572 178.962 170.62 179.141L458.897 177.377C483.355 177.266 505.977 192.832 518.735 218.773C531.493 244.713 531.981 275.875 519.959 301.469L378.354 601.925C372.474 613.602 364.162 623.568 354.735 630.211ZM154.303 222.144C148.974 225.898 144.203 231.315 141.132 238.273C134.99 252.189 135.352 268.372 142.42 281.885L289.092 580.577C295.75 594.378 307.589 602.474 320.711 602.817C327.067 603.132 333.363 600.751 338.692 596.996C344.02 593.242 348.381 588.114 351.042 581.444L492.647 280.989C499.112 267.53 498.838 250.6 492.18 236.799C485.522 222.998 473.361 214.444 460.151 214.848L172.284 216.323C165.517 216.296 159.631 218.389 154.303 222.144Z" fill="url(#paint1_linear_2_78)"/>
<path d="M381.362 611.449C371.115 618.669 359.43 622.108 347.772 622.104C323.725 621.926 301.835 606.529 289.077 580.588L142.404 281.896C129.969 256.413 129.393 225.998 140.595 200.981C152.208 175.676 173.199 160.2 197.247 160.379L485.524 158.615C509.982 158.504 532.604 174.07 545.362 200.01C558.12 225.951 558.609 257.113 546.586 282.707L404.982 583.163C399.102 594.84 390.789 604.806 381.362 611.449ZM180.93 203.381C175.602 207.136 170.831 212.553 167.76 219.511C161.617 233.427 161.979 249.61 169.047 263.123L315.719 561.815C322.377 575.616 334.216 583.712 347.338 584.055C353.695 584.37 359.99 581.989 365.319 578.234C370.647 574.48 375.009 569.352 377.67 562.682L519.275 262.227C525.739 248.768 525.465 231.838 518.807 218.037C512.149 204.236 499.988 195.682 486.778 196.086L198.911 197.561C191.735 197.823 185.849 199.916 180.93 203.381Z" fill="url(#paint2_linear_2_78)"/>
<defs>
<linearGradient id="paint0_linear_2_78" x1="353.105" y1="26.2485" x2="118.479" y2="670.013" gradientUnits="userSpaceOnUse">
<stop stop-color="#FF0067"/>
<stop offset="1" stop-color="#FF3248"/>
</linearGradient>
<linearGradient id="paint1_linear_2_78" x1="373.142" y1="33.537" x2="138.516" y2="677.301" gradientUnits="userSpaceOnUse">
<stop stop-color="#FF0067"/>
<stop offset="1" stop-color="#FF3248"/>
</linearGradient>
<linearGradient id="paint2_linear_2_78" x1="393.168" y1="40.8524" x2="158.542" y2="684.617" gradientUnits="userSpaceOnUse">
<stop stop-color="#FF0067"/>
<stop offset="1" stop-color="#FF3248"/>
</linearGradient>
</defs>
</svg>
