<svg width="399" height="811" viewBox="0 0 399 811" fill="none" xmlns="http://www.w3.org/2000/svg">
<path opacity="0.3" d="M-221.373 550.266C-232.323 547.418 -241.605 541.755 -248.57 534.376C-262.826 519.068 -265.623 497.462 -255.916 476.324L-144.007 233.083C-134.412 212.38 -114.434 196.699 -91.0217 191.19C-67.1719 185.794 -44.2832 191.285 -30.0275 206.592L143.47 388.133C158.164 403.555 198.708 433.863 189.001 455C179.294 476.137 121.341 483.987 97.0535 489.268L-188.353 550.968C-199.233 553.242 -210.861 553.001 -221.373 550.266ZM-68.5152 217.923C-74.2091 216.442 -80.6802 216.15 -87.1654 217.711C-100.136 220.833 -110.733 229.212 -115.537 240.489L-227.446 483.73C-232.688 494.894 -231.021 506.463 -223.406 514.939C-219.817 519.121 -214.463 521.906 -208.769 523.387C-203.075 524.868 -197.042 525.045 -190.995 523.371L94.4124 461.67C107.27 458.983 118.418 450.284 123.66 439.121C128.902 427.957 127.348 415.953 119.182 407.797L-53.8778 226.37C-57.9045 222.075 -62.8213 219.404 -68.5152 217.923Z" fill="url(#paint0_linear_2_94)"/>
<path opacity="0.6" d="M-192.726 557.712C-203.676 554.864 -212.959 549.201 -219.924 541.822C-234.18 526.514 -236.976 504.908 -227.269 483.77L-115.36 240.529C-105.766 219.826 -85.787 204.145 -62.3751 198.636C-38.5253 193.24 -15.6365 198.731 -1.38091 214.038L172.117 395.579C186.811 411.001 189.932 433.156 180.225 454.293C170.518 475.431 149.988 491.433 125.7 496.714L-159.707 558.414C-171.024 560.574 -182.652 560.333 -192.726 557.712ZM-39.8686 225.369C-45.5625 223.888 -52.0336 223.597 -58.5188 225.157C-71.4893 228.279 -82.0862 236.658 -86.8904 247.935L-198.799 491.176C-204.042 502.34 -202.375 513.909 -194.76 522.385C-191.171 526.567 -185.816 529.352 -180.122 530.833C-174.428 532.314 -168.395 532.491 -162.348 530.817L123.059 469.117C135.916 466.43 147.064 457.73 152.307 446.567C157.549 435.403 155.995 423.399 147.829 415.243L-25.2312 233.817C-29.2578 229.521 -34.1747 226.85 -39.8686 225.369Z" fill="url(#paint1_linear_2_94)"/>
<path d="M-164.083 565.16C-175.033 562.312 -184.316 556.649 -191.281 549.27C-205.537 533.962 -208.334 512.356 -198.626 491.218L-86.7173 247.977C-77.1231 227.274 -57.1443 211.593 -33.7324 206.084C-9.88256 200.688 13.0061 206.179 27.2618 221.486L200.76 403.027C215.453 418.449 218.575 440.604 208.868 461.741C199.161 482.879 178.631 498.881 154.343 504.162L-131.064 565.862C-142.381 568.022 -154.01 567.781 -164.083 565.16ZM-11.2259 232.817C-16.9198 231.336 -23.3909 231.045 -29.8761 232.605C-42.8466 235.727 -53.4435 244.106 -58.2477 255.383L-170.157 498.624C-175.399 509.788 -173.732 521.357 -166.117 529.833C-162.528 534.015 -157.173 536.8 -151.48 538.281C-145.786 539.762 -139.753 539.939 -133.705 538.265L151.702 476.565C164.559 473.878 175.707 465.178 180.949 454.015C186.192 442.851 184.638 430.847 176.471 422.691L3.41148 241.265C-1.05313 236.855 -5.96995 234.184 -11.2259 232.817Z" fill="url(#paint2_linear_2_94)"/>
<defs>
<linearGradient id="paint0_linear_2_94" x1="209.699" y1="252.486" x2="-334.498" y2="488.616" gradientUnits="userSpaceOnUse">
<stop stop-color="#FFA800"/>
<stop offset="1" stop-color="#FF3248"/>
</linearGradient>
<linearGradient id="paint1_linear_2_94" x1="216.969" y1="268.873" x2="-327.228" y2="505.003" gradientUnits="userSpaceOnUse">
<stop stop-color="#FF8A00"/>
<stop offset="1" stop-color="#FF3248"/>
</linearGradient>
<linearGradient id="paint2_linear_2_94" x1="224.241" y1="285.276" x2="-319.956" y2="521.406" gradientUnits="userSpaceOnUse">
<stop stop-color="#FFD600"/>
<stop offset="1" stop-color="#FF3248"/>
</linearGradient>
</defs>
</svg>
