<svg width="25" height="22" viewBox="0 0 25 22" fill="none" xmlns="http://www.w3.org/2000/svg">
<path d="M21.1223 3.79466H17.4219V3.37553C17.4175 2.48165 17.0659 1.62565 16.4436 0.993571C15.8212 0.361496 14.9783 0.0044362 14.0982 0H10.9157C10.0355 0.0044362 9.19266 0.361496 8.57028 0.993571C7.94791 1.62565 7.59632 2.48165 7.59196 3.37553V3.79466H3.87769C2.84926 3.79466 1.86296 4.20956 1.13575 4.9481C0.408541 5.68664 0 6.68832 0 7.73277V18.0619C0 19.1063 0.408541 20.108 1.13575 20.8466C1.86296 21.5851 2.84926 22 3.87769 22H21.1223C22.1507 22 23.137 21.5851 23.8643 20.8466C24.5915 20.108 25 19.1063 25 18.0619V7.73277C25 6.68832 24.5915 5.68664 23.8643 4.9481C23.137 4.20956 22.1507 3.79466 21.1223 3.79466ZM8.68602 3.37553C8.69037 2.78006 8.92521 2.21024 9.33982 1.78917C9.75443 1.3681 10.3155 1.12959 10.9018 1.12518H14.0871C14.6736 1.12886 15.2351 1.36714 15.6499 1.78836C16.0647 2.20959 16.2993 2.77984 16.3029 3.37553V3.79466H8.68602V3.37553ZM23.8893 18.0591C23.8893 18.8051 23.5975 19.5206 23.0781 20.0481C22.5586 20.5757 21.8541 20.872 21.1195 20.872H3.87769C3.1431 20.872 2.43859 20.5757 1.91916 20.0481C1.39973 19.5206 1.10791 18.8051 1.10791 18.0591V7.73277C1.10791 6.98673 1.39973 6.27125 1.91916 5.74372C2.43859 5.21619 3.1431 4.91983 3.87769 4.91983H21.1223C21.8569 4.91983 22.5614 5.21619 23.0808 5.74372C23.6003 6.27125 23.8921 6.98673 23.8921 7.73277V18.0619L23.8893 18.0591Z" fill="#91586D"/>
<path d="M21.1223 3.79466H17.4219V3.37553C17.4175 2.48165 17.0659 1.62565 16.4436 0.993571C15.8212 0.361496 14.9783 0.0044362 14.0982 0H10.9157C10.0355 0.0044362 9.19266 0.361496 8.57028 0.993571C7.94791 1.62565 7.59632 2.48165 7.59196 3.37553V3.79466H3.87769C2.84926 3.79466 1.86296 4.20956 1.13575 4.9481C0.408541 5.68664 0 6.68832 0 7.73277V18.0619C0 19.1063 0.408541 20.108 1.13575 20.8466C1.86296 21.5851 2.84926 22 3.87769 22H21.1223C22.1507 22 23.137 21.5851 23.8643 20.8466C24.5915 20.108 25 19.1063 25 18.0619V7.73277C25 6.68832 24.5915 5.68664 23.8643 4.9481C23.137 4.20956 22.1507 3.79466 21.1223 3.79466ZM8.68602 3.37553C8.69037 2.78006 8.92521 2.21024 9.33982 1.78917C9.75443 1.3681 10.3155 1.12959 10.9018 1.12518H14.0871C14.6736 1.12886 15.2351 1.36714 15.6499 1.78836C16.0647 2.20959 16.2993 2.77984 16.3029 3.37553V3.79466H8.68602V3.37553ZM23.8893 18.0591C23.8893 18.8051 23.5975 19.5206 23.0781 20.0481C22.5586 20.5757 21.8541 20.872 21.1195 20.872H3.87769C3.1431 20.872 2.43859 20.5757 1.91916 20.0481C1.39973 19.5206 1.10791 18.8051 1.10791 18.0591V7.73277C1.10791 6.98673 1.39973 6.27125 1.91916 5.74372C2.43859 5.21619 3.1431 4.91983 3.87769 4.91983H21.1223C21.8569 4.91983 22.5614 5.21619 23.0808 5.74372C23.6003 6.27125 23.8921 6.98673 23.8921 7.73277V18.0619L23.8893 18.0591Z" fill="url(#paint0_linear_2_43)" fill-opacity="0.8"/>
<defs>
<linearGradient id="paint0_linear_2_43" x1="25" y1="32" x2="11.3621" y2="-23.8609" gradientUnits="userSpaceOnUse">
<stop stop-color="#2A1E27"/>
<stop offset="1" stop-opacity="0"/>
</linearGradient>
</defs>
</svg>
