<svg width="15" height="22" viewBox="0 0 15 22" fill="none" xmlns="http://www.w3.org/2000/svg">
<path d="M13.2255 21.5257C13.2262 21.5168 13.2284 21.5084 13.2284 21.4995V12.282C14.3314 10.9811 15 9.30328 15 7.47051C15 3.35109 11.6357 0 7.5 0C3.36432 0 0 3.35109 0 7.47051C0 9.20199 0.599873 10.7934 1.59588 12.0614L1.68304 21.4159C1.68304 21.424 1.68517 21.4318 1.68552 21.4399C1.68659 21.4565 1.68836 21.4734 1.69119 21.49C1.69403 21.508 1.69793 21.525 1.70253 21.5419C1.70466 21.5493 1.70501 21.5571 1.70749 21.5645C1.70891 21.5691 1.71245 21.5722 1.71387 21.5768C1.72981 21.6217 1.75072 21.6637 1.778 21.7018C1.78261 21.7085 1.78828 21.7134 1.79289 21.7198C1.81875 21.7526 1.84816 21.7815 1.88147 21.8069C1.88749 21.8115 1.89245 21.8165 1.89847 21.8207C1.93497 21.8461 1.97501 21.8655 2.01753 21.8807C2.02745 21.8842 2.03772 21.8871 2.04764 21.8899C2.08981 21.9019 2.13339 21.9104 2.1791 21.9107C2.18087 21.9107 2.183 21.9118 2.18512 21.9118C2.18583 21.9118 2.18654 21.9114 2.18725 21.9114C2.18796 21.9114 2.18902 21.9114 2.18973 21.9114C2.23685 21.9111 2.2815 21.9022 2.32473 21.8895C2.32933 21.8881 2.33429 21.8888 2.33926 21.8871L7.40858 20.2611L12.5676 21.9742C12.5732 21.976 12.5785 21.9753 12.5842 21.9771C12.6278 21.9898 12.6731 21.9989 12.721 21.9989C12.7228 21.9989 12.7249 22 12.7267 22C12.7288 22 12.7309 21.9989 12.733 21.9989C12.7784 21.9986 12.8216 21.9905 12.8634 21.9785C12.8733 21.9753 12.8836 21.9725 12.8935 21.9693C12.9364 21.9541 12.9768 21.9347 13.0133 21.9097C13.0183 21.9061 13.0218 21.9022 13.0268 21.8987C13.0604 21.8736 13.0902 21.8444 13.1164 21.8119C13.1221 21.8048 13.1277 21.7988 13.1331 21.7914C13.16 21.7544 13.1816 21.7131 13.1975 21.669C13.199 21.6647 13.2022 21.6615 13.2036 21.6577C13.2068 21.6485 13.2075 21.6386 13.2099 21.6294C13.2146 21.6132 13.2185 21.597 13.2209 21.58C13.2231 21.562 13.2248 21.544 13.2255 21.5257ZM7.57016 19.2602C7.56768 19.2591 7.56484 19.2591 7.56236 19.2584C7.54252 19.2521 7.52197 19.2485 7.50142 19.2447C7.48866 19.2422 7.47626 19.239 7.46386 19.2376C7.44827 19.2358 7.43197 19.2365 7.41603 19.2365C7.39831 19.2362 7.38059 19.2355 7.36323 19.2372C7.3526 19.2383 7.34162 19.2411 7.33134 19.2429C7.30866 19.2468 7.28599 19.2507 7.26402 19.2574C7.26189 19.2581 7.25977 19.2581 7.25764 19.2588L2.68118 20.7266L2.61031 13.1227C3.92486 14.2524 5.63164 14.9407 7.5 14.9407C9.2897 14.9407 10.9334 14.3114 12.2242 13.2653V20.805L7.57016 19.2602ZM7.5 1.00021C11.0815 1.00021 13.9958 3.90272 13.9958 7.47051C13.9958 11.0383 11.0815 13.9408 7.5 13.9408C3.91813 13.9408 1.00416 11.0383 1.00416 7.47051C1.00416 3.90272 3.91813 1.00021 7.5 1.00021Z" fill="#91586D"/>
<path d="M13.2255 21.5257C13.2262 21.5168 13.2284 21.5084 13.2284 21.4995V12.282C14.3314 10.9811 15 9.30328 15 7.47051C15 3.35109 11.6357 0 7.5 0C3.36432 0 0 3.35109 0 7.47051C0 9.20199 0.599873 10.7934 1.59588 12.0614L1.68304 21.4159C1.68304 21.424 1.68517 21.4318 1.68552 21.4399C1.68659 21.4565 1.68836 21.4734 1.69119 21.49C1.69403 21.508 1.69793 21.525 1.70253 21.5419C1.70466 21.5493 1.70501 21.5571 1.70749 21.5645C1.70891 21.5691 1.71245 21.5722 1.71387 21.5768C1.72981 21.6217 1.75072 21.6637 1.778 21.7018C1.78261 21.7085 1.78828 21.7134 1.79289 21.7198C1.81875 21.7526 1.84816 21.7815 1.88147 21.8069C1.88749 21.8115 1.89245 21.8165 1.89847 21.8207C1.93497 21.8461 1.97501 21.8655 2.01753 21.8807C2.02745 21.8842 2.03772 21.8871 2.04764 21.8899C2.08981 21.9019 2.13339 21.9104 2.1791 21.9107C2.18087 21.9107 2.183 21.9118 2.18512 21.9118C2.18583 21.9118 2.18654 21.9114 2.18725 21.9114C2.18796 21.9114 2.18902 21.9114 2.18973 21.9114C2.23685 21.9111 2.2815 21.9022 2.32473 21.8895C2.32933 21.8881 2.33429 21.8888 2.33926 21.8871L7.40858 20.2611L12.5676 21.9742C12.5732 21.976 12.5785 21.9753 12.5842 21.9771C12.6278 21.9898 12.6731 21.9989 12.721 21.9989C12.7228 21.9989 12.7249 22 12.7267 22C12.7288 22 12.7309 21.9989 12.733 21.9989C12.7784 21.9986 12.8216 21.9905 12.8634 21.9785C12.8733 21.9753 12.8836 21.9725 12.8935 21.9693C12.9364 21.9541 12.9768 21.9347 13.0133 21.9097C13.0183 21.9061 13.0218 21.9022 13.0268 21.8987C13.0604 21.8736 13.0902 21.8444 13.1164 21.8119C13.1221 21.8048 13.1277 21.7988 13.1331 21.7914C13.16 21.7544 13.1816 21.7131 13.1975 21.669C13.199 21.6647 13.2022 21.6615 13.2036 21.6577C13.2068 21.6485 13.2075 21.6386 13.2099 21.6294C13.2146 21.6132 13.2185 21.597 13.2209 21.58C13.2231 21.562 13.2248 21.544 13.2255 21.5257ZM7.57016 19.2602C7.56768 19.2591 7.56484 19.2591 7.56236 19.2584C7.54252 19.2521 7.52197 19.2485 7.50142 19.2447C7.48866 19.2422 7.47626 19.239 7.46386 19.2376C7.44827 19.2358 7.43197 19.2365 7.41603 19.2365C7.39831 19.2362 7.38059 19.2355 7.36323 19.2372C7.3526 19.2383 7.34162 19.2411 7.33134 19.2429C7.30866 19.2468 7.28599 19.2507 7.26402 19.2574C7.26189 19.2581 7.25977 19.2581 7.25764 19.2588L2.68118 20.7266L2.61031 13.1227C3.92486 14.2524 5.63164 14.9407 7.5 14.9407C9.2897 14.9407 10.9334 14.3114 12.2242 13.2653V20.805L7.57016 19.2602ZM7.5 1.00021C11.0815 1.00021 13.9958 3.90272 13.9958 7.47051C13.9958 11.0383 11.0815 13.9408 7.5 13.9408C3.91813 13.9408 1.00416 11.0383 1.00416 7.47051C1.00416 3.90272 3.91813 1.00021 7.5 1.00021Z" fill="url(#paint0_linear_2_40)" fill-opacity="0.8"/>
<defs>
<linearGradient id="paint0_linear_2_40" x1="15" y1="32" x2="-5.6634" y2="-18.7825" gradientUnits="userSpaceOnUse">
<stop stop-color="#2A1E27"/>
<stop offset="1" stop-opacity="0"/>
</linearGradient>
</defs>
</svg>
