<svg width="103" height="107" viewBox="0 0 103 107" fill="none" xmlns="http://www.w3.org/2000/svg">
<path opacity="0.3" d="M4.92221 44.4558C3.87296 42.6687 3.40411 40.7331 3.45776 38.8752C3.59402 35.0463 6.03013 31.8858 10.025 30.4054L56.022 13.396C59.9459 11.9573 64.5644 12.5138 68.3101 14.8325C72.0978 17.2226 74.3511 20.8981 74.2149 24.727L73.1732 70.7096C73.0789 74.61 70.6139 77.8837 66.619 79.364C62.6242 80.8444 57.8928 80.258 54.0631 77.7964L9.10779 48.8232C7.4043 47.7086 5.92949 46.1714 4.92221 44.4558ZM67.7627 21.2098C67.2171 20.2805 66.4167 19.4047 65.3746 18.7669C63.2905 17.4913 62.7993 23.8886 60.7165 24.727L14.7195 41.7364C12.5947 42.5033 12.4515 40.5227 12.34 42.6069C12.2632 43.6132 11.7649 43.3142 11.0916 43.3142C11.6372 44.2435 11.3399 44.3405 12.34 44.9068L57.2954 73.88C59.3086 75.1973 61.8791 75.5144 64.0039 74.7475C66.1287 73.9806 67.4821 72.2247 67.4807 70.1107L68.5644 24.1996C68.5992 23.1218 68.3083 22.1391 67.7627 21.2098Z" fill="url(#paint0_linear_2_243)"/>
<path opacity="0.6" d="M7.66798 49.1306C6.61873 47.3435 6.14988 45.4079 6.20353 43.55C6.3398 39.7211 8.7759 36.5606 12.7707 35.0802L58.7678 18.0708C62.6917 16.6321 67.3102 17.1886 71.0559 19.5073C74.8436 21.8974 77.0969 25.5729 76.9607 29.4018L75.919 75.3844C75.8247 79.2848 73.3597 82.5585 69.3648 84.0388C65.37 85.5192 60.6385 84.9328 56.8089 82.4712L11.8536 53.498C10.1081 52.3119 8.6333 50.7747 7.66798 49.1306ZM70.5085 25.8846C69.9628 24.9553 69.1625 24.0795 68.1204 23.4417C66.0363 22.1661 63.5786 21.8788 61.4958 22.7172L15.4988 39.7266C13.374 40.4935 12.0915 42.2077 11.98 44.2919C11.9032 45.2982 12.236 46.3524 12.7817 47.2817C13.3273 48.2109 14.0857 49.0153 15.0858 49.5816L60.0411 78.5549C62.0544 79.8721 64.6249 80.1892 66.7497 79.4223C68.8745 78.6554 70.2278 76.8995 70.2265 74.7855L71.3101 28.8744C71.3449 27.7966 71.0541 26.8139 70.5085 25.8846Z" fill="url(#paint1_linear_2_243)"/>
<path d="M10.4116 53.8047C9.36239 52.0176 8.89354 50.082 8.94718 48.2241C9.08345 44.3952 11.5195 41.2347 15.5144 39.7543L61.5114 22.7449C65.4353 21.3062 70.0539 21.8627 73.7996 24.1814C77.5872 26.5715 79.8406 30.247 79.7043 34.0759L78.6626 80.0585C78.5684 83.9589 76.1033 87.2325 72.1085 88.7129C68.1136 90.1933 63.3822 89.6069 59.5526 87.1453L14.5972 58.172C12.8517 56.986 11.3769 55.4488 10.4116 53.8047ZM73.2521 30.5587C72.7065 29.6294 71.9061 28.7536 70.8641 28.1158C68.7799 26.8402 66.3223 26.5529 64.2395 27.3913L18.2424 44.4007C16.1177 45.1676 14.8352 46.8818 14.7236 48.9659C14.6469 49.9723 14.9797 51.0265 15.5253 51.9557C16.0709 52.885 16.8293 53.6894 17.8294 54.2557L62.7848 83.2289C64.798 84.5461 67.3685 84.8633 69.4933 84.0964C71.6181 83.3295 72.9715 81.5736 72.9702 79.4596L74.0538 33.5485C74.0466 32.3992 73.7557 31.4165 73.2521 30.5587Z" fill="url(#paint2_linear_2_243)"/>
<defs>
<linearGradient id="paint0_linear_2_243" x1="99.319" y1="61.7189" x2="-1.74453" y2="21.8199" gradientUnits="userSpaceOnUse">
<stop stop-color="#FFA800"/>
<stop offset="1" stop-color="#FF3248"/>
</linearGradient>
<linearGradient id="paint1_linear_2_243" x1="98.1383" y1="64.783" x2="-2.92528" y2="24.884" gradientUnits="userSpaceOnUse">
<stop stop-color="#FF8A00"/>
<stop offset="1" stop-color="#FF3248"/>
</linearGradient>
<linearGradient id="paint2_linear_2_243" x1="96.9543" y1="67.8491" x2="-4.10926" y2="27.9501" gradientUnits="userSpaceOnUse">
<stop stop-color="#FFD600"/>
<stop offset="1" stop-color="#FF3248"/>
</linearGradient>
</defs>
</svg>
